<svg version="1.1" viewBox="0 0 256 256" xmlns="http://www.w3.org/2000/svg">
 <g transform="rotate(-45 160.31 113.29)">
  <g transform="translate(67.254)">
   <path d="m188.75 72.678a128 128 0 0 1 -64 110.85 128 128 0 0 1 -128 -1e-5 128 128 0 0 1 -64 -110.85l128 6e-6z" fill="#2e7d32"/>
   <path d="m176.27 72.678a115.53 116.3 0 0 1 -57.763 100.72 115.53 116.3 0 0 1 -115.53 -1e-5 115.53 116.3 0 0 1 -57.763 -100.72" fill="#d50000" stroke="#fff" stroke-width="5"/>
  </g>
  <g fill="#212121">
   <ellipse cx="126.5" cy="153.97" rx="3.2283" ry="7.4393"/>
   <ellipse transform="matrix(.94895 -.31543 .28872 .95741 0 0)" cx="100.54" cy="190.45" rx="3.2433" ry="7.4078"/>
   <ellipse transform="matrix(-.94895 -.31543 -.28872 .95741 0 0)" cx="-140.82" cy="110.93" rx="3.2433" ry="7.4078"/>
   <ellipse transform="matrix(.88281 -.46973 .43473 .90056 0 0)" cx="92.674" cy="205.57" rx="3.2619" ry="7.3685"/>
   <ellipse transform="matrix(.88281 .46973 .43473 -.90056 0 0)" cx="134.96" cy="-86.842" rx="3.2619" ry="7.3685"/>
   <ellipse transform="matrix(.74476 -.66734 .63079 .77595 0 0)" cx="64.932" cy="221.3" rx="3.2972" ry="7.2924"/>
   <ellipse transform="matrix(.74476 .66734 .63079 -.77595 0 0)" cx="131.55" cy="-52.324" rx="3.2972" ry="7.2924"/>
   <ellipse transform="matrix(.55828 -.82965 .80318 .59574 0 0)" cx="31.608" cy="229.29" rx="3.3366" ry="7.2055"/>
   <ellipse transform="matrix(.55828 .82965 .80318 -.59574 0 0)" cx="119.33" cy="-19.092" rx="3.3366" ry="7.2055"/>
  </g>
 </g>
</svg>
