<svg version="1.1" viewBox="0 0 256 256" xmlns="http://www.w3.org/2000/svg" xmlns:osb="http://www.openswatchbook.org/uri/2009/osb">
 <circle cx="128" cy="130.17" r="95.458" fill="#f57f17" stroke-width=".74576"/>
 <ellipse transform="matrix(.8406 -.54166 .7377 .67513 0 0)" cx="12.588" cy="106.06" rx="7.8027" ry="3.9604" fill="#fce68d" stroke="#bdbdbd" stroke-width="1.1003"/>
 <g fill="none" stroke="#ee6f0b" stroke-width="2">
  <path d="m81.881 73.159c-3.3238 3.6754-5.658 5.0609-9.9714 11.026s-4.4743 7.926-6.7115 11.889"/>
  <path d="m77.47 67.214s-5.092 0.53396-7.4786 1.3902c-2.2688 0.81402-6.328 3.4996-6.328 3.4996"/>
  <path d="m88.017 57.531s0.49529-3.1937 1.0547-4.6981c0.54318-1.4608 2.2052-4.1228 2.2052-4.1228"/>
  <path d="m97.988 57.339c3.6434-2.7485 5.5158-5.2354 11.314-7.6703 5.7979-2.4349 8.9487-2.2372 13.615-3.0681"/>
  <path d="m99.714 62.708s8.3789-1.5055 15.341-1.0547 18.601 5.3692 18.601 5.3692"/>
 </g>
</svg>
