<svg version="1.1" viewBox="0 0 256 256" xmlns="http://www.w3.org/2000/svg">
 <path d="m136.38 75.837-5.5755-21.972-64.078-23.131s78.907-10.513 87.672-8.1554c11.176 3.0063 1.8698 55.87 1.8698 55.87s41.151-13.745 60.25-7.1069c7.4572 2.592 21.556 83.039 21.556 83.039l-28.037-49.338-46.956-13.662" fill="#43a047" fill-rule="evenodd" stroke="#1b5e20" stroke-width="3.7137"/>
 <g fill="#3949ab" stroke="#fff" stroke-width="5.4436">
  <ellipse cx="56.349" cy="181.64" rx="25.611" ry="24.998"/>
  <ellipse cx="83.513" cy="210.12" rx="25.611" ry="24.998"/>
  <ellipse cx="57.355" cy="141.87" rx="25.611" ry="24.998"/>
  <ellipse cx="124.26" cy="198.82" rx="25.611" ry="24.998"/>
  <ellipse cx="160.48" cy="174.77" rx="25.611" ry="24.998"/>
  <ellipse cx="75.465" cy="103.57" rx="25.611" ry="24.998"/>
  <ellipse cx="109.17" cy="81.473" rx="25.611" ry="24.998"/>
  <ellipse cx="171.04" cy="136.47" rx="25.611" ry="24.998"/>
  <ellipse cx="149.41" cy="99.149" rx="25.611" ry="24.998"/>
  <ellipse cx="83.513" cy="175.26" rx="25.611" ry="24.998"/>
  <ellipse cx="114.7" cy="167.4" rx="25.611" ry="24.998"/>
  <ellipse cx="88.041" cy="137.45" rx="25.611" ry="24.998"/>
  <ellipse cx="136.33" cy="138.43" rx="25.611" ry="24.998"/>
  <ellipse cx="117.22" cy="111.42" rx="25.611" ry="24.998"/>
 </g>
</svg>
