<svg version="1.1" viewBox="0 0 256 256" xmlns="http://www.w3.org/2000/svg">
 <path d="m155.28 215.26c-18.183 14.753-40.624 20.738-62.207 18.491-21.583-2.2478-42.309-12.73-57.062-30.912-14.753-18.183-20.738-40.624-18.491-62.207 2.2479-21.583 12.73-42.309 30.912-57.062 18.183-14.753 42.887-17.948 64.471-15.701 21.583 2.2479 62.766-31.628 88.7-3.0855 25.934 28.543-17.764 71.863-20.012 93.446s-8.1285 42.278-26.311 57.03z" fill="#4caf50" stroke-width=".66244"/>
 <path d="m195.46 69.761c7.963-6.1524 16.55-11.836 22.984-19.573 6.3992-7.6956 10.283-16.979 14.971-26.027" fill="none" stroke="#4e342e" stroke-linecap="round" stroke-linejoin="round" stroke-width="5.2995"/>
</svg>
